<?xml version="1.0" standalone="no"?>
<!DOCTYPE svg PUBLIC "-//W3C//DTD SVG 20010904//EN"
 "http://www.w3.org/TR/2001/REC-SVG-20010904/DTD/svg10.dtd">
<svg version="1.0" xmlns="http://www.w3.org/2000/svg"
 width="290.000000pt" height="300.000000pt" viewBox="0 0 290.000000 300.000000"
 preserveAspectRatio="xMidYMid meet">

<g transform="translate(0.000000,300.000000) scale(0.100000,-0.100000)"
fill="#000000" stroke="none">
<path d="M2173 2965 c-29 -19 -99 -53 -155 -75 -57 -22 -130 -60 -163 -83 -75
-54 -109 -119 -138 -263 -20 -99 -20 -110 -5 -271 8 -92 12 -171 9 -175 -3 -4
-37 4 -76 17 -38 13 -80 24 -93 25 -39 0 -67 37 -116 155 -39 95 -40 101 -12
127 21 19 25 33 27 83 1 33 -4 78 -10 100 -6 22 -11 57 -11 78 0 51 -24 95
-56 103 -31 8 -165 -2 -215 -16 -62 -17 -85 -43 -103 -114 -9 -36 -16 -78 -16
-94 0 -37 -23 -53 -115 -76 -69 -18 -71 -19 -190 -140 -210 -213 -223 -224
-327 -262 -51 -19 -114 -40 -140 -45 -27 -6 -66 -25 -90 -45 -24 -18 -51 -34
-61 -34 -23 0 -107 -78 -107 -100 0 -19 102 -142 205 -250 35 -36 75 -88 89
-116 47 -96 296 -303 363 -304 7 0 25 -13 39 -30 30 -33 164 -93 197 -88 18 2
22 11 25 48 3 49 21 70 60 70 20 0 22 -2 12 -15 -17 -20 -2 -38 26 -32 40 7
38 -11 -7 -66 -81 -98 -187 -193 -119 -107 20 26 26 50 12 50 -4 0 -26 -18
-47 -41 -58 -59 -68 -63 -112 -41 -78 39 -142 54 -236 54 -146 -1 -249 -45
-349 -150 -95 -99 -138 -207 -138 -348 -1 -438 526 -658 835 -349 73 72 120
161 137 255 6 36 14 68 17 72 5 5 273 38 312 38 19 0 87 72 104 110 23 51 71
69 140 53 38 -9 47 -8 61 8 16 17 18 17 67 -7 53 -28 112 -29 142 -4 25 21 17
38 -46 103 -70 71 -119 140 -119 166 0 18 338 301 359 301 6 0 11 -19 11 -42
0 -29 7 -49 22 -65 l21 -23 -57 -59 c-36 -38 -70 -88 -93 -137 -33 -69 -37
-87 -41 -179 -5 -124 16 -207 76 -300 173 -268 557 -304 777 -74 147 154 182
377 89 568 -81 165 -264 280 -446 281 -55 0 -47 -19 -82 189 l-23 144 26 9
c14 6 96 33 181 62 l155 51 13 90 13 90 -36 117 -35 118 30 56 c16 31 30 68
30 81 0 13 7 34 15 47 14 21 14 34 4 92 -16 94 -37 114 -123 114 -36 0 -68 -4
-71 -10 -12 -20 -23 -9 -34 34 -19 77 -15 94 22 104 37 10 77 62 77 100 0 50
-41 149 -66 161 -16 7 -24 19 -24 35 0 37 -35 56 -102 56 -50 0 -60 3 -74 25
-23 35 -59 32 -121 -10z m458 -613 c11 -29 5 -28 -16 4 -11 17 -12 25 -4 22 6
-2 16 -14 20 -26z m-56 -96 c9 -24 15 -56 13 -72 -3 -25 -7 -18 -26 40 -25 78
-25 76 -13 76 5 0 17 -20 26 -44z m-966 -272 c7 -2 28 1 46 7 43 16 88 1 95
-32 4 -18 18 -28 53 -40 28 -9 43 -19 38 -25 -5 -5 -11 -20 -13 -34 -2 -15
-11 -26 -23 -29 -11 -2 -32 -12 -48 -23 -21 -15 -33 -18 -55 -10 -16 5 -40 5
-59 0 -18 -5 -65 -8 -105 -6 l-73 3 -6 45 c-4 25 -10 71 -14 103 l-8 58 79 -6
c43 -4 85 -9 93 -11z m340 -299 c12 -31 21 -68 21 -84 0 -25 -3 -28 -25 -23
-22 4 -25 1 -25 -23 0 -15 8 -33 17 -40 15 -11 15 -18 5 -54 -7 -22 -21 -49
-32 -59 -18 -17 -272 -102 -304 -102 -13 0 -16 12 -16 58 -1 132 -27 168 -162
223 -43 17 -78 35 -78 40 0 20 32 21 53 1 25 -23 58 -21 90 6 11 10 50 18 105
23 48 4 107 13 131 19 31 7 47 8 55 0 5 -5 31 -10 56 -10 46 0 47 1 59 40 6
22 16 40 21 40 5 0 18 -25 29 -55z m265 -182 c9 -31 57 -305 54 -307 -2 -2
-27 -12 -56 -24 l-53 -21 -15 37 c-8 20 -23 53 -34 73 -31 59 -81 191 -75 198
6 6 152 58 167 60 4 1 9 -7 12 -16z m-249 -93 c-5 -8 -11 -8 -17 -2 -6 6 -7
16 -3 22 5 8 11 8 17 2 6 -6 7 -16 3 -22z m3 -107 c-2 -10 -10 -18 -18 -18 -8
0 -16 8 -18 18 -2 12 3 17 18 17 15 0 20 -5 18 -17z m-99 -10 l22 -18 -23 -58
c-21 -51 -34 -66 -133 -147 -60 -50 -113 -90 -116 -90 -14 0 -34 33 -23 37 32
11 46 30 37 49 -5 10 -17 33 -25 50 -11 21 -14 47 -11 78 l6 45 56 17 c113 34
176 53 182 53 4 1 16 -7 28 -16z m-674 -92 l40 -8 -37 -17 c-44 -19 -70 -20
-86 -4 -34 34 -2 46 83 29z m1235 -208 c0 -85 -12 -137 -24 -103 -7 23 -26
144 -26 168 0 17 6 22 25 22 25 0 25 -1 25 -87z m55 20 c-3 -32 -13 -65 -21
-73 -12 -12 -14 -5 -14 58 0 67 2 72 21 72 20 0 21 -3 14 -57z m-1385 38 c0
-14 -90 -84 -98 -76 -4 4 13 25 37 46 43 38 61 47 61 30z m289 -12 c-9 -17 -8
-23 2 -30 8 -5 17 -9 20 -9 7 0 1 -175 -6 -197 -3 -9 -17 -5 -47 12 -24 14
-59 25 -80 25 -32 0 -39 4 -44 26 -10 41 16 81 91 139 39 30 71 54 73 54 1 1
-2 -9 -9 -20z m905 -4 c4 -14 4 -30 2 -34 -3 -4 4 -32 15 -60 14 -37 16 -52 7
-49 -12 4 -98 125 -98 138 0 8 40 28 56 29 7 1 15 -10 18 -24z m246 15 c13 -8
10 -14 -14 -37 l-29 -28 7 25 c3 14 6 31 6 38 0 14 10 15 30 2z m55 -26 c13
-6 5 -18 -41 -65 -32 -33 -61 -59 -65 -59 -15 0 6 47 39 88 36 44 40 46 67 36z
m17 -106 c-56 -73 -98 -115 -122 -121 -17 -4 -20 0 -20 26 0 27 13 44 77 105
68 65 78 71 91 58 14 -13 11 -21 -26 -68z m-428 -3 c40 -61 42 -65 22 -65 -8
0 -33 21 -55 46 -32 37 -39 50 -30 60 18 22 24 18 63 -41z m505 22 c8 -11 1
-23 -37 -54 -26 -22 -60 -48 -77 -59 -30 -19 -30 -19 -15 1 37 51 102 125 110
125 4 0 13 -6 19 -13z m-1709 -7 c0 -5 -4 -10 -10 -10 -5 0 -10 5 -10 10 0 6
5 10 10 10 6 0 10 -4 10 -10z m1144 -27 l19 -26 -29 7 c-36 9 -36 9 -28 30 8
22 16 20 38 -11z m337 -20 c-8 -15 -10 -15 -11 -2 0 17 10 32 18 25 2 -3 -1
-13 -7 -23z m-1611 13 c0 -2 -8 -10 -17 -17 -16 -13 -17 -12 -4 4 13 16 21 21
21 13z m1872 -6 c0 -5 1 -15 2 -21 1 -10 -72 -39 -99 -39 -14 0 68 69 83 70 6
0 13 -4 14 -10z m-600 -26 c44 -15 97 -58 86 -70 -6 -5 -146 30 -155 40 -7 7
7 46 16 46 4 0 28 -7 53 -16z m-1633 -41 c-1 -27 -4 -59 -8 -73 -6 -20 -9 -12
-15 38 -7 62 -3 82 15 82 5 0 9 -21 8 -47z m68 -58 c-4 -68 -11 -112 -21 -126
l-14 -21 -15 24 c-12 19 -14 38 -7 103 5 44 9 90 9 103 1 17 7 22 28 22 l26 0
-6 -105z m1873 89 c0 -8 -5 -12 -10 -9 -6 4 -8 11 -5 16 9 14 15 11 15 -7z
m-1986 -31 c16 -109 18 -138 8 -128 -25 25 -102 120 -102 126 0 6 66 37 82 38
3 1 9 -16 12 -36z m181 28 c10 -17 -11 -119 -31 -148 l-19 -28 -3 30 c-2 16
-1 58 3 92 5 52 10 63 25 63 10 0 21 -4 25 -9z m43 -54 c-19 -26 -23 -29 -26
-14 -2 10 -1 30 2 43 6 21 9 23 27 14 19 -11 19 -11 -3 -43z m2082 23 c0 -18
-6 -20 -82 -19 l-83 1 60 18 c82 25 105 25 105 0z m-2030 -13 c0 -7 -20 -33
-45 -57 -55 -54 -58 -45 -7 21 38 49 52 59 52 36z m1461 -28 c47 -13 72 -27
83 -44 20 -30 16 -30 -76 -6 -40 11 -92 25 -115 31 -31 8 -43 16 -43 29 0 34
1 34 151 -10z m-1789 -44 c116 -136 120 -145 74 -145 -54 0 -119 35 -167 91
-27 31 -49 61 -49 65 0 10 61 63 72 64 4 0 35 -34 70 -75z m955 54 c20 -17 16
-37 -12 -55 -31 -20 -52 -13 -66 22 -15 41 -5 58 33 50 17 -3 37 -11 45 -17z
m1419 -24 c4 -14 4 -28 2 -30 -2 -3 -50 -13 -107 -22 -91 -16 -105 -16 -128
-3 -35 20 -34 30 6 57 29 20 47 23 127 23 92 0 94 0 100 -25z m-1546 -14 c23
-43 -3 -81 -55 -81 -20 0 -19 49 1 78 19 27 40 28 54 3z m1285 9 c-3 -5 -13
-10 -21 -10 -8 0 -14 5 -14 10 0 6 9 10 21 10 11 0 17 -4 14 -10z m-1692 -34
c16 -24 16 -24 -42 -40 -79 -22 -80 -21 -36 24 45 46 57 49 78 16z m1301 8
c33 -8 78 -20 99 -25 42 -11 41 -29 -1 -29 -15 0 -64 7 -109 16 -68 14 -83 20
-83 35 0 23 14 24 94 3z m-1813 -92 c-4 -1 -29 6 -55 18 -47 20 -49 24 -22 59
8 10 18 4 47 -30 21 -24 34 -45 30 -47z m1199 78 c-20 -13 -60 -13 -60 0 0 6
17 10 38 10 27 0 33 -3 22 -10z m1268 -32 c-3 -22 -6 -23 -83 -19 -44 2 -84 6
-90 9 -11 7 91 29 143 31 29 1 33 -2 30 -21z m-258 2 c0 -5 -7 -10 -15 -10 -8
0 -15 5 -15 10 0 6 7 10 15 10 8 0 15 -4 15 -10z m-1908 -22 c-7 -7 -12 -8
-12 -2 0 14 12 26 19 19 2 -3 -1 -11 -7 -17z m1524 10 c35 -6 64 -14 64 -18 0
-3 -32 -21 -71 -40 -59 -29 -72 -32 -79 -20 -6 8 -10 22 -10 30 0 8 -3 25 -6
38 -8 26 6 28 102 10z m159 -7 c-3 -6 -11 -8 -17 -5 -6 4 -5 9 3 15 16 10 23
4 14 -10z m-1435 -10 c17 -33 12 -40 -42 -56 -64 -19 -77 -19 -52 -1 25 19 9
34 -17 17 -27 -16 -34 -9 -11 12 16 15 83 44 104 46 4 1 12 -8 18 -18z m-500
-72 c14 -13 33 -34 44 -46 18 -22 18 -23 -9 -33 -23 -9 -44 -4 -126 26 -60 23
-99 43 -99 51 0 7 6 29 14 48 l15 34 68 -28 c38 -15 80 -39 93 -52z m1910 61
c27 -17 -2 -41 -95 -82 -49 -21 -90 -38 -91 -38 -2 0 -8 9 -14 20 -9 18 -2 24
77 64 96 49 101 50 123 36z m380 -47 c81 -59 87 -67 70 -93 -8 -13 -23 -8 -96
30 -87 46 -114 70 -114 102 0 37 56 21 140 -39z m-338 25 c-7 -7 -12 -8 -12
-2 0 14 12 26 19 19 2 -3 -1 -11 -7 -17z m185 -14 c-9 -10 -38 16 -31 28 4 6
13 4 22 -6 9 -8 13 -19 9 -22z m200 3 c48 -25 60 -35 53 -47 -7 -12 -19 -7
-65 24 -92 64 -86 74 12 23z m73 13 c0 -24 -13 -24 -65 0 l-40 19 53 0 c46 1
52 -1 52 -19z m-1360 -2 c0 -7 -9 -24 -19 -38 -16 -20 -21 -22 -35 -11 -21 18
-20 48 2 54 33 9 52 7 52 -5z m-724 -13 c-19 -15 -46 -20 -46 -10 0 6 40 24
55 24 6 0 1 -6 -9 -14z m1674 7 c0 -4 -9 -13 -20 -20 -22 -13 -27 -3 -8 16 14
14 28 16 28 4z m-1110 -17 c7 -8 20 -15 30 -15 19 0 34 -25 24 -41 -10 -17
-73 -10 -94 11 -32 32 -26 50 21 59 4 0 12 -6 19 -14z m1050 -14 c0 -5 -7 -14
-15 -21 -16 -14 -18 -10 -9 14 6 17 24 22 24 7z m70 -12 c0 -32 -81 -209 -96
-209 -25 0 -24 21 6 106 34 98 90 162 90 103z m-1655 1 c-3 -5 -10 -10 -16
-10 -5 0 -9 5 -9 10 0 6 7 10 16 10 8 0 12 -4 9 -10z m1535 -21 c-6 -13 -36
-39 -67 -58 l-55 -33 -21 20 c-11 12 -19 24 -16 26 7 7 164 74 167 71 1 -1 -2
-13 -8 -26z m250 -95 c37 -91 38 -94 19 -105 -17 -9 -21 -6 -33 23 -33 80 -59
177 -52 194 7 19 8 19 18 0 6 -10 27 -61 48 -112z m-2055 97 c0 -23 -19 -23
-33 0 -12 19 -11 20 10 17 13 -2 23 -9 23 -17z m210 9 c-3 -5 -10 -10 -16 -10
-5 0 -9 5 -9 10 0 6 7 10 16 10 8 0 12 -4 9 -10z m1907 -99 c29 -65 30 -91 5
-91 -12 0 -87 168 -87 194 0 25 56 -46 82 -103z m-1481 72 l32 -28 -34 -6
c-42 -9 -49 -5 -49 32 0 36 10 36 51 2z m1329 11 c0 -8 -4 -12 -10 -9 -5 3
-10 10 -10 16 0 5 5 9 10 9 6 0 10 -7 10 -16z m-2160 -24 c95 -34 98 -44 11
-35 -93 8 -101 12 -101 42 0 16 5 23 13 20 6 -2 41 -15 77 -27z m2373 -6 c37
-19 67 -39 67 -43 0 -19 -29 -32 -47 -22 -25 13 -109 101 -97 101 5 0 40 -16
77 -36z m-1733 -6 c0 -22 -3 -23 -108 -25 -116 -1 -116 1 -2 27 104 24 110 24
110 -2z m1388 10 c-3 -7 -13 -38 -23 -68 -20 -62 -29 -75 -44 -66 -6 4 -3 23
10 54 12 26 25 57 30 70 9 22 35 32 27 10z m96 -100 c-18 -70 -30 -85 -59 -75
-11 5 -7 22 23 91 45 102 64 94 36 -16z m-1934 67 c0 -8 -6 -15 -14 -15 -20 0
-29 17 -14 23 22 9 28 7 28 -8z m2014 -72 c25 -71 25 -72 5 -78 -11 -4 -22 -5
-25 -3 -7 7 -24 108 -24 141 0 43 13 25 44 -60z m-234 72 c0 -15 -30 -75 -37
-75 -4 0 -17 8 -28 16 -17 13 -18 16 -5 24 8 5 24 16 35 24 20 16 35 20 35 11z
m-1970 -14 c22 -7 19 -9 -29 -24 -30 -10 -56 -17 -58 -17 -2 0 -3 11 -3 25 0
22 4 25 33 24 17 -1 43 -4 57 -8z m2364 -20 c16 -16 25 -34 22 -40 -14 -21
-31 -10 -48 29 -20 47 -12 51 26 11z m-2299 0 c-6 -4 -40 -25 -76 -45 -63 -34
-67 -35 -72 -17 -4 17 6 24 67 45 78 27 95 31 81 17z m105 -8 c2 -2 -3 -16
-12 -31 -22 -36 -204 -104 -219 -81 -5 8 -9 16 -9 19 0 3 39 28 88 57 69 41
93 50 117 46 17 -3 32 -8 35 -10z m476 -9 c-3 -9 -9 -27 -12 -40 -3 -13 -8
-24 -11 -24 -2 0 -24 12 -49 26 -65 38 -58 52 30 53 40 1 47 -2 42 -15z m-430
-5 c3 -6 0 -15 -7 -20 -22 -14 -28 -11 -22 11 6 22 18 26 29 9z m63 -30 c-7
-14 -14 -18 -21 -11 -13 13 -2 32 18 32 12 0 13 -4 3 -21z m231 -25 c36 -26
69 -50 73 -54 9 -8 -13 -50 -26 -50 -4 0 -47 25 -96 55 -113 70 -124 92 -46
94 22 1 51 -13 95 -45z m50 14 c27 -18 50 -39 50 -45 0 -7 -3 -13 -6 -13 -7 0
-124 81 -124 86 0 13 37 -1 80 -28z m1599 -40 c1 -12 -6 -18 -19 -18 -23 0
-24 2 -8 55 l12 40 7 -30 c3 -16 7 -38 8 -47z m-1825 39 c13 -10 24 -44 37
-123 20 -117 19 -134 -8 -134 -14 0 -26 25 -54 107 -34 99 -36 110 -23 135 16
32 23 33 48 15z m-102 -42 c1 -20 -13 -57 -41 -107 -23 -43 -46 -80 -50 -82
-4 -3 -16 0 -25 7 -15 11 -14 19 14 97 30 83 73 141 91 123 5 -5 9 -22 11 -38z
m-116 6 c-3 -4 -33 -25 -67 -45 -56 -33 -64 -35 -78 -22 -18 19 -21 17 64 48
80 29 88 31 81 19z m-2 -86 c-29 -80 -37 -91 -52 -73 -7 10 0 30 30 81 23 37
42 66 44 64 2 -1 -8 -34 -22 -72z m376 24 c51 -31 59 -42 39 -55 -6 -3 -32 14
-57 40 -26 25 -43 46 -40 46 4 0 30 -14 58 -31z m-426 -28 c-14 -23 -30 -41
-33 -41 -9 0 -31 22 -31 31 0 9 82 60 88 54 2 -2 -9 -22 -24 -44z m256 -128
c0 -7 -6 -13 -14 -13 -15 0 -29 52 -40 145 -6 47 -4 45 24 -35 16 -46 30 -90
30 -97z m104 109 c34 -68 34 -68 14 -81 -27 -17 -34 -6 -43 67 -4 30 -9 61
-12 69 -3 7 -2 13 1 13 3 0 21 -31 40 -68z m73 -36 c-11 -29 -26 -17 -58 47
l-31 62 48 -47 c31 -31 45 -51 41 -62z m-238 -10 c7 -37 10 -71 7 -73 -6 -6
-78 6 -94 16 -9 6 -3 24 25 74 20 37 40 64 44 60 4 -5 12 -39 18 -77z"/>
</g>
</svg>
